<svg xmlns="http://www.w3.org/2000/svg" class="aimv" viewBox="-50 -41.6 100 118.8" width="100" height="118.8" role="img" aria-label="voxel mem prism"><title>voxel mem prism</title><g fill="#e8e9ed"><path d="M0 29.57L8.4 33.6L0 37.63L-8.4 33.6Z"/><path d="M-10 34.37L-1.6 38.4L-10 42.43L-18.4 38.4Z"/><path d="M10 34.37L18.4 38.4L10 42.43L1.6 38.4Z"/><path d="M0 39.17L8.4 43.2L0 47.23L-8.4 43.2Z"/><path d="M-20 39.17L-11.6 43.2L-20 47.23L-28.4 43.2Z"/><path d="M20 39.17L28.4 43.2L20 47.23L11.6 43.2Z"/><path d="M-10 43.97L-1.6 48L-10 52.03L-18.4 48Z"/><path d="M10 43.97L18.4 48L10 52.03L1.6 48Z"/><path d="M-30 43.97L-21.6 48L-30 52.03L-38.4 48Z"/><path d="M30 43.97L38.4 48L30 52.03L21.6 48Z"/><path d="M0 48.77L8.4 52.8L0 56.83L-8.4 52.8Z"/><path d="M-20 48.77L-11.6 52.8L-20 56.83L-28.4 52.8Z"/><path d="M20 48.77L28.4 52.8L20 56.83L11.6 52.8Z"/><path d="M-10 53.57L-1.6 57.6L-10 61.63L-18.4 57.6Z"/><path d="M10 53.57L18.4 57.6L10 61.63L1.6 57.6Z"/><path d="M0 58.37L8.4 62.4L0 66.43L-8.4 62.4Z"/></g><g class="aimv-cubes"><g class="aimv-c" stroke="#6b6e75" stroke-opacity=".35" stroke-width="0.6" stroke-linejoin="round"><path fill="#f2f3f5" d="M0 18.4L-10 23.2L-10 33.2L0 28.4Z"/></g><g class="aimv-c" stroke="#6b6e75" stroke-opacity=".35" stroke-width="0.6" stroke-linejoin="round"><path fill="#e8e9ed" d="M0 18.4L10 23.2L10 33.2L0 28.4Z"/></g><g class="aimv-c" stroke="#ffffff" stroke-opacity=".35" stroke-width="0.6" stroke-linejoin="round"><path fill="#6b6e75" d="M0 28.4L10 33.2L0 38L-10 33.2Z"/></g><g class="aimv-c" stroke="#6b6e75" stroke-opacity=".35" stroke-width="0.6" stroke-linejoin="round"><path fill="#f2f3f5" d="M0 8.4L-10 13.2L-10 23.2L0 18.4Z"/></g><g class="aimv-c" stroke="#6b6e75" stroke-opacity=".35" stroke-width="0.6" stroke-linejoin="round"><path fill="#e8e9ed" d="M0 8.4L10 13.2L10 23.2L0 18.4Z"/></g><g class="aimv-c" stroke="#6b6e75" stroke-opacity=".35" stroke-width="0.6" stroke-linejoin="round"><path fill="#f2f3f5" d="M-10 23.2L-20 28L-20 38L-10 33.2Z"/></g><g class="aimv-c" stroke="#6b6e75" stroke-opacity=".35" stroke-width="0.6" stroke-linejoin="round"><path fill="#e8e9ed" d="M10 23.2L20 28L20 38L10 33.2Z"/></g><g class="aimv-c" stroke="#ffffff" stroke-opacity=".35" stroke-width="0.6" stroke-linejoin="round"><path fill="#6b6e75" d="M-10 33.2L0 38L-10 42.8L-20 38Z"/><path fill="#202124" d="M-20 38L-10 42.8L-10 52.8L-20 48Z"/></g><g class="aimv-c" stroke="#ffffff" stroke-opacity=".35" stroke-width="0.6" stroke-linejoin="round"><path fill="#6b6e75" d="M10 33.2L20 38L10 42.8L0 38Z"/><path fill="#6b6e75" d="M20 38L10 42.8L10 52.8L20 48Z"/></g><g class="aimv-c" stroke="#6b6e75" stroke-opacity=".35" stroke-width="0.6" stroke-linejoin="round"><path fill="#f2f3f5" d="M-10 13.2L-20 18L-20 28L-10 23.2Z"/></g><g class="aimv-c" stroke="#6b6e75" stroke-opacity=".35" stroke-width="0.6" stroke-linejoin="round"><path fill="#e8e9ed" d="M10 13.2L20 18L20 28L10 23.2Z"/></g><g class="aimv-c" stroke="#ffffff" stroke-opacity=".35" stroke-width="0.6" stroke-linejoin="round"><path fill="#6b6e75" d="M-40 28L-30 32.8L-30 42.8L-40 38Z"/></g><g class="aimv-c" stroke="#ffffff" stroke-opacity=".35" stroke-width="0.6" stroke-linejoin="round"><path fill="#6b6e75" d="M40 28L30 32.8L30 42.8L40 38Z"/></g><g class="aimv-c" stroke="#ffffff" stroke-opacity=".35" stroke-width="0.6" stroke-linejoin="round"><path fill="#6b6e75" d="M0 38L10 42.8L0 47.6L-10 42.8Z"/><path fill="#202124" d="M-10 42.8L0 47.6L0 57.6L-10 52.8Z"/><path fill="#6b6e75" d="M10 42.8L0 47.6L0 57.6L10 52.8Z"/></g><g class="aimv-c" stroke="#ffffff" stroke-opacity=".35" stroke-width="0.6" stroke-linejoin="round"><path fill="#e8e9ed" d="M0 -31.2L10 -26.4L0 -21.6L-10 -26.4Z"/></g><g class="aimv-c" stroke="#6b6e75" stroke-opacity=".35" stroke-width="0.6" stroke-linejoin="round"><path fill="#f2f3f5" d="M0 -11.6L-10 -6.8L-10 3.2L0 -1.6Z"/></g><g class="aimv-c" stroke="#6b6e75" stroke-opacity=".35" stroke-width="0.6" stroke-linejoin="round"><path fill="#e8e9ed" d="M0 -11.6L10 -6.8L10 3.2L0 -1.6Z"/></g><g class="aimv-c" stroke="#ffffff" stroke-opacity=".35" stroke-width="0.6" stroke-linejoin="round"><path fill="#db303d" d="M0 -1.6L10 3.2L0 8L-10 3.2Z"/></g><g class="aimv-c" stroke="#ffffff" stroke-opacity=".35" stroke-width="0.6" stroke-linejoin="round"><path fill="#6b6e75" d="M-40 18L-30 22.8L-30 32.8L-40 28Z"/></g><g class="aimv-c" stroke="#ffffff" stroke-opacity=".35" stroke-width="0.6" stroke-linejoin="round"><path fill="#6b6e75" d="M40 18L30 22.8L30 32.8L40 28Z"/></g><g class="aimv-c" stroke="#6b6e75" stroke-opacity=".35" stroke-width="0.6" stroke-linejoin="round"><path fill="#e8e9ed" d="M-30 32.8L-20 37.6L-20 47.6L-30 42.8Z"/></g><g class="aimv-c" stroke="#6b6e75" stroke-opacity=".35" stroke-width="0.6" stroke-linejoin="round"><path fill="#f2f3f5" d="M30 32.8L20 37.6L20 47.6L30 42.8Z"/></g><g class="aimv-c" stroke="#6b6e75" stroke-opacity=".35" stroke-width="0.6" stroke-linejoin="round"><path fill="#ffffff" d="M-10 -26.4L0 -21.6L-10 -16.8L-20 -21.6Z"/><path fill="#f2f3f5" d="M0 -21.6L-10 -16.8L-10 -6.8L0 -11.6Z"/></g><g class="aimv-c" stroke="#6b6e75" stroke-opacity=".35" stroke-width="0.6" stroke-linejoin="round"><path fill="#ffffff" d="M10 -26.4L20 -21.6L10 -16.8L0 -21.6Z"/><path fill="#e8e9ed" d="M0 -21.6L10 -16.8L10 -6.8L0 -11.6Z"/></g><g class="aimv-c" stroke="#6b6e75" stroke-opacity=".35" stroke-width="0.6" stroke-linejoin="round"><path fill="#f2f3f5" d="M-10 -6.8L-20 -2L-20 8L-10 3.2Z"/></g><g class="aimv-c" stroke="#6b6e75" stroke-opacity=".35" stroke-width="0.6" stroke-linejoin="round"><path fill="#e8e9ed" d="M10 -6.8L20 -2L20 8L10 3.2Z"/></g><g class="aimv-c" stroke="#ffffff" stroke-opacity=".35" stroke-width="0.6" stroke-linejoin="round"><path fill="#6b6e75" d="M-40 8L-30 12.8L-30 22.8L-40 18Z"/></g><g class="aimv-c" stroke="#ffffff" stroke-opacity=".35" stroke-width="0.6" stroke-linejoin="round"><path fill="#db303d" d="M-10 3.2L0 8L-10 12.8L-20 8Z"/></g><g class="aimv-c" stroke="#ffffff" stroke-opacity=".35" stroke-width="0.6" stroke-linejoin="round"><path fill="#db303d" d="M10 3.2L20 8L10 12.8L0 8Z"/></g><g class="aimv-c" stroke="#ffffff" stroke-opacity=".35" stroke-width="0.6" stroke-linejoin="round"><path fill="#6b6e75" d="M40 8L30 12.8L30 22.8L40 18Z"/></g><g class="aimv-c" stroke="#6b6e75" stroke-opacity=".35" stroke-width="0.6" stroke-linejoin="round"><path fill="#e8e9ed" d="M-30 22.8L-20 27.6L-20 37.6L-30 32.8Z"/></g><g class="aimv-c" stroke="#6b6e75" stroke-opacity=".35" stroke-width="0.6" stroke-linejoin="round"><path fill="#f2f3f5" d="M30 22.8L20 27.6L20 37.6L30 32.8Z"/></g><g class="aimv-c" stroke="#6b6e75" stroke-opacity=".35" stroke-width="0.6" stroke-linejoin="round"><path fill="#e8e9ed" d="M-20 37.6L-10 42.4L-10 52.4L-20 47.6Z"/></g><g class="aimv-c" stroke="#6b6e75" stroke-opacity=".35" stroke-width="0.6" stroke-linejoin="round"><path fill="#f2f3f5" d="M20 37.6L10 42.4L10 52.4L20 47.6Z"/></g><g class="aimv-c" stroke="#6b6e75" stroke-opacity=".35" stroke-width="0.6" stroke-linejoin="round"><path fill="#ffffff" d="M-20 -21.6L-10 -16.8L-20 -12L-30 -16.8Z"/><path fill="#f2f3f5" d="M-10 -16.8L-20 -12L-20 -2L-10 -6.8Z"/></g><g class="aimv-c" stroke="#6b6e75" stroke-opacity=".35" stroke-width="0.6" stroke-linejoin="round"><path fill="#ffffff" d="M20 -21.6L30 -16.8L20 -12L10 -16.8Z"/><path fill="#e8e9ed" d="M10 -16.8L20 -12L20 -2L10 -6.8Z"/></g><g class="aimv-c" stroke="#ffffff" stroke-opacity=".35" stroke-width="0.6" stroke-linejoin="round"><path fill="#6b6e75" d="M-40 -2L-30 2.8L-30 12.8L-40 8Z"/></g><g class="aimv-c" stroke="#ffffff" stroke-opacity=".35" stroke-width="0.6" stroke-linejoin="round"><path fill="#6b6e75" d="M40 -2L30 2.8L30 12.8L40 8Z"/></g><g class="aimv-c" stroke="#6b6e75" stroke-opacity=".35" stroke-width="0.6" stroke-linejoin="round"><path fill="#e8e9ed" d="M-30 12.8L-20 17.6L-20 27.6L-30 22.8Z"/><path fill="#f2f3f5" d="M-10 12.8L-20 17.6L-20 27.6L-10 22.8Z"/></g><g class="aimv-c" stroke="#ffffff" stroke-opacity=".35" stroke-width="0.6" stroke-linejoin="round"><path fill="#db303d" d="M0 8L10 12.8L0 17.6L-10 12.8Z"/><path fill="#db303d" d="M-10 12.8L0 17.6L0 27.6L-10 22.8Z"/><path fill="#db303d" d="M10 12.8L0 17.6L0 27.6L10 22.8Z"/></g><g class="aimv-c" stroke="#6b6e75" stroke-opacity=".35" stroke-width="0.6" stroke-linejoin="round"><path fill="#e8e9ed" d="M10 12.8L20 17.6L20 27.6L10 22.8Z"/><path fill="#f2f3f5" d="M30 12.8L20 17.6L20 27.6L30 22.8Z"/></g><g class="aimv-c" stroke="#6b6e75" stroke-opacity=".35" stroke-width="0.6" stroke-linejoin="round"><path fill="#ffffff" d="M-10 22.8L0 27.6L-10 32.4L-20 27.6Z"/><path fill="#e8e9ed" d="M-20 27.6L-10 32.4L-10 42.4L-20 37.6Z"/><path fill="#f2f3f5" d="M0 27.6L-10 32.4L-10 42.4L0 37.6Z"/></g><g class="aimv-c" stroke="#6b6e75" stroke-opacity=".35" stroke-width="0.6" stroke-linejoin="round"><path fill="#ffffff" d="M10 22.8L20 27.6L10 32.4L0 27.6Z"/><path fill="#e8e9ed" d="M0 27.6L10 32.4L10 42.4L0 37.6Z"/><path fill="#f2f3f5" d="M20 27.6L10 32.4L10 42.4L20 37.6Z"/></g><g class="aimv-c" stroke="#ffffff" stroke-opacity=".35" stroke-width="0.6" stroke-linejoin="round"><path fill="#e8e9ed" d="M0 37.6L10 42.4L0 47.2L-10 42.4Z"/><path fill="#6b6e75" d="M-10 42.4L0 47.2L0 57.2L-10 52.4Z"/><path fill="#6b6e75" d="M10 42.4L0 47.2L0 57.2L10 52.4Z"/></g><g class="aimv-c" stroke="#ffffff" stroke-opacity=".35" stroke-width="0.6" stroke-linejoin="round"><path fill="#e8e9ed" d="M0 -31.6L10 -26.8L0 -22L-10 -26.8Z"/></g><g class="aimv-c" stroke="#ffffff" stroke-opacity=".35" stroke-width="0.6" stroke-linejoin="round"><path fill="#e8e9ed" d="M-30 -16.8L-20 -12L-30 -7.2L-40 -12Z"/><path fill="#6b6e75" d="M-40 -12L-30 -7.2L-30 2.8L-40 -2Z"/></g><g class="aimv-c" stroke="#ffffff" stroke-opacity=".35" stroke-width="0.6" stroke-linejoin="round"><path fill="#e8e9ed" d="M30 -16.8L40 -12L30 -7.2L20 -12Z"/><path fill="#6b6e75" d="M40 -12L30 -7.2L30 2.8L40 -2Z"/></g><g class="aimv-c" stroke="#6b6e75" stroke-opacity=".35" stroke-width="0.6" stroke-linejoin="round"><path fill="#e8e9ed" d="M-30 2.8L-20 7.6L-20 17.6L-30 12.8Z"/><path fill="#f2f3f5" d="M-10 2.8L-20 7.6L-20 17.6L-10 12.8Z"/></g><g class="aimv-c" stroke="#6b6e75" stroke-opacity=".35" stroke-width="0.6" stroke-linejoin="round"><path fill="#e8e9ed" d="M10 2.8L20 7.6L20 17.6L10 12.8Z"/><path fill="#f2f3f5" d="M30 2.8L20 7.6L20 17.6L30 12.8Z"/></g><g class="aimv-c" stroke="#ffffff" stroke-opacity=".35" stroke-width="0.6" stroke-linejoin="round"><path fill="#e8e9ed" d="M-10 -26.8L0 -22L-10 -17.2L-20 -22Z"/><path fill="#6b6e75" d="M-20 -22L-10 -17.2L-10 -7.2L-20 -12Z"/></g><g class="aimv-c" stroke="#ffffff" stroke-opacity=".35" stroke-width="0.6" stroke-linejoin="round"><path fill="#e8e9ed" d="M10 -26.8L20 -22L10 -17.2L0 -22Z"/><path fill="#6b6e75" d="M20 -22L10 -17.2L10 -7.2L20 -12Z"/></g><g class="aimv-c" stroke="#6b6e75" stroke-opacity=".35" stroke-width="0.6" stroke-linejoin="round"><path fill="#ffffff" d="M-20 -12L-10 -7.2L-20 -2.4L-30 -7.2Z"/><path fill="#e8e9ed" d="M-30 -7.2L-20 -2.4L-20 7.6L-30 2.8Z"/></g><g class="aimv-c" stroke="#6b6e75" stroke-opacity=".35" stroke-width="0.6" stroke-linejoin="round"><path fill="#ffffff" d="M20 -12L30 -7.2L20 -2.4L10 -7.2Z"/><path fill="#f2f3f5" d="M30 -7.2L20 -2.4L20 7.6L30 2.8Z"/></g><g class="aimv-c" stroke="#ffffff" stroke-opacity=".35" stroke-width="0.6" stroke-linejoin="round"><path fill="#e8e9ed" d="M0 -22L10 -17.2L0 -12.4L-10 -17.2Z"/><path fill="#6b6e75" d="M-10 -17.2L0 -12.4L0 -2.4L-10 -7.2Z"/><path fill="#6b6e75" d="M10 -17.2L0 -12.4L0 -2.4L10 -7.2Z"/></g><g class="aimv-c" stroke="#6b6e75" stroke-opacity=".35" stroke-width="0.6" stroke-linejoin="round"><path fill="#ffffff" d="M-10 -7.2L0 -2.4L-10 2.4L-20 -2.4Z"/><path fill="#e8e9ed" d="M-20 -2.4L-10 2.4L-10 12.4L-20 7.6Z"/><path fill="#f2f3f5" d="M0 -2.4L-10 2.4L-10 12.4L0 7.6Z"/></g><g class="aimv-c" stroke="#6b6e75" stroke-opacity=".35" stroke-width="0.6" stroke-linejoin="round"><path fill="#ffffff" d="M10 -7.2L20 -2.4L10 2.4L0 -2.4Z"/><path fill="#e8e9ed" d="M0 -2.4L10 2.4L10 12.4L0 7.6Z"/><path fill="#f2f3f5" d="M20 -2.4L10 2.4L10 12.4L20 7.6Z"/></g></g></svg>
